<svg width="221" height="48" viewBox="0 0 221 48" fill="none" xmlns="http://www.w3.org/2000/svg">
<path d="M117.834 38.8977H125.534L117.948 28.5437L124.248 21.1614L131.648 38.5944L131.041 40.1494C130.738 40.9585 130.371 41.5779 129.941 42.0078C129.512 42.4629 128.816 42.6905 127.855 42.6905C127.552 42.6905 127.211 42.6525 126.831 42.5767C126.477 42.5261 126.149 42.4503 125.845 42.3491L125.163 47.583C125.618 47.7094 126.149 47.8106 126.755 47.8864C127.388 47.9623 127.994 48.0002 128.576 48.0002C129.764 48.0002 130.789 47.8612 131.648 47.583C132.533 47.3049 133.292 46.8877 133.924 46.3314C134.581 45.8005 135.138 45.1431 135.593 44.3592C136.073 43.6007 136.503 42.7284 136.882 41.7423L145.34 20.0103H138.741L134.986 32.1468H134.872L130.662 20.0103H125.23L125.23 20.0102H117.683L111.652 27.6714H111.538V10.2251H105.28V38.8977H111.538V29.8332H111.652L117.834 38.8977Z" fill="white"/>
<path d="M103.252 29.3781C103.252 30.6929 103.05 31.9571 102.646 33.1708C102.241 34.3845 101.647 35.4591 100.863 36.3946C100.104 37.3048 99.1688 38.0381 98.0562 38.5943C96.9437 39.1506 95.6794 39.4287 94.2634 39.4287C92.9991 39.4287 91.7981 39.1759 90.6602 38.6702C89.5477 38.1392 88.688 37.3933 88.0811 36.4325H88.0053V38.8978H82.2781V10.2251H88.4983V22.0203H88.5742C89.1052 21.3882 89.8511 20.8067 90.812 20.2757C91.7728 19.7447 92.9486 19.4792 94.3393 19.4792C95.7047 19.4792 96.931 19.7447 98.0183 20.2757C99.1309 20.8067 100.066 21.5273 100.825 22.4375C101.609 23.3478 102.203 24.4097 102.608 25.6234C103.037 26.8117 103.252 28.0633 103.252 29.3781ZM97.2597 29.3781C97.2597 28.7713 97.1586 28.1771 96.9563 27.5956C96.7793 27.014 96.5012 26.5083 96.1219 26.0785C95.7426 25.6234 95.2748 25.2568 94.7186 24.9786C94.1623 24.7005 93.5175 24.5614 92.7842 24.5614C92.0762 24.5614 91.4441 24.7005 90.8878 24.9786C90.3315 25.2568 89.8511 25.6234 89.4465 26.0785C89.0673 26.5336 88.7638 27.052 88.5363 27.6335C88.334 28.215 88.2328 28.8092 88.2328 29.4161C88.2328 30.0229 88.334 30.6171 88.5363 31.1986C88.7638 31.7802 89.0673 32.2985 89.4465 32.7536C89.8511 33.2087 90.3315 33.5754 90.8878 33.8535C91.4441 34.1316 92.0762 34.2707 92.7842 34.2707C93.5175 34.2707 94.1623 34.1316 94.7186 33.8535C95.2748 33.5754 95.7426 33.2087 96.1219 32.7536C96.5012 32.2985 96.7793 31.7802 96.9563 31.1986C97.1586 30.5918 97.2597 29.985 97.2597 29.3781Z" fill="white"/>
<path d="M73.3065 38.8978V36.2809H73.2306C73.0031 36.7107 72.6996 37.1153 72.3204 37.4945C71.9664 37.8738 71.5365 38.2025 71.0308 38.4806C70.5504 38.7587 70.0068 38.9863 69.3999 39.1633C68.8183 39.3403 68.1988 39.4288 67.5414 39.4288C66.2772 39.4288 65.2025 39.2012 64.3175 38.7461C63.4578 38.291 62.7498 37.7094 62.1936 37.0015C61.6626 36.2682 61.2706 35.4465 61.0178 34.5362C60.7902 33.6007 60.6764 32.6525 60.6764 31.6917V20.0103H66.9346V30.2505C66.9346 30.7815 66.9725 31.2872 67.0484 31.7676C67.1242 32.248 67.2633 32.6778 67.4656 33.0571C67.6931 33.4364 67.9839 33.7398 68.3379 33.9673C68.6919 34.1696 69.1597 34.2707 69.7413 34.2707C70.8285 34.2707 71.6503 33.8662 72.2066 33.0571C72.7881 32.248 73.0789 31.2998 73.0789 30.2126V20.0103H79.2991V38.8978H73.3065Z" fill="white"/>
<path d="M59.717 20.3136C59.717 21.8813 59.4262 23.2087 58.8447 24.2959C58.2631 25.3579 57.4792 26.2176 56.4931 26.875C55.507 27.5324 54.3691 28.0128 53.0796 28.3162C51.79 28.6196 50.4499 28.7713 49.0592 28.7713H45.8353V38.8977H39.3496V12.0456H49.2109C50.6775 12.0456 52.0429 12.1973 53.3072 12.5007C54.5967 12.7788 55.7093 13.2466 56.6448 13.904C57.6057 14.5361 58.3516 15.3831 58.8826 16.4451C59.4389 17.4818 59.717 18.7713 59.717 20.3136ZM53.2313 20.3515C53.2313 19.7194 53.1049 19.2011 52.852 18.7966C52.5992 18.392 52.2578 18.0759 51.828 17.8484C51.3981 17.6208 50.905 17.4691 50.3488 17.3933C49.8178 17.3174 49.2615 17.2795 48.6799 17.2795H45.8353V23.6133H48.5661C49.173 23.6133 49.7546 23.5627 50.3108 23.4615C50.8671 23.3604 51.3602 23.1834 51.79 22.9306C52.2452 22.6777 52.5992 22.349 52.852 21.9445C53.1049 21.5146 53.2313 20.9837 53.2313 20.3515Z" fill="white"/>
<path d="M203.581 42.4689C204.289 43.379 205.25 44.1501 206.463 44.7821C207.702 45.4141 209.004 45.7301 210.369 45.7301C211.633 45.7301 212.707 45.5405 213.592 45.1613C214.477 44.8074 215.185 44.3144 215.716 43.6824C216.272 43.0504 216.677 42.3046 216.929 41.445C217.182 40.6108 217.309 39.7133 217.309 38.7526V35.4156H217.233C216.55 36.5279 215.577 37.3875 214.313 37.9942C213.074 38.601 211.81 38.9043 210.521 38.9043C209.13 38.9043 207.866 38.6768 206.729 38.2217C205.616 37.7667 204.656 37.1473 203.847 36.3636C203.063 35.5546 202.443 34.5939 201.988 33.4816C201.559 32.3692 201.344 31.1684 201.344 29.8791C201.344 28.615 201.559 27.4268 201.988 26.3145C202.443 25.2021 203.063 24.2288 203.847 23.3946C204.656 22.5603 205.616 21.903 206.729 21.4227C207.866 20.9423 209.13 20.7021 210.521 20.7021C211.81 20.7021 213.074 21.0055 214.313 21.6123C215.552 22.219 216.525 23.0912 217.233 24.2288H217.309V21.1572H219.887V38.7526C219.887 39.7133 219.748 40.7372 219.47 41.8243C219.217 42.9113 218.724 43.9099 217.991 44.82C217.283 45.7301 216.31 46.4886 215.071 47.0953C213.832 47.702 212.227 48.0054 210.255 48.0054C208.612 48.0054 207.045 47.6894 205.553 47.0574C204.061 46.4254 202.785 45.5532 201.723 44.4408L203.581 42.4689ZM204.074 29.8032C204.074 30.7386 204.226 31.6235 204.529 32.4577C204.832 33.292 205.262 34.0251 205.818 34.6571C206.4 35.2892 207.108 35.7948 207.942 36.174C208.776 36.5279 209.724 36.7049 210.786 36.7049C211.772 36.7049 212.682 36.5406 213.516 36.2119C214.351 35.8833 215.071 35.4156 215.678 34.8088C216.285 34.2021 216.752 33.4816 217.081 32.6473C217.435 31.7878 217.612 30.8397 217.612 29.8032C217.612 28.8678 217.435 27.983 217.081 27.1488C216.752 26.3145 216.285 25.5813 215.678 24.9493C215.071 24.3173 214.351 23.8117 213.516 23.4325C212.682 23.0533 211.772 22.8637 210.786 22.8637C209.724 22.8637 208.776 23.0533 207.942 23.4325C207.108 23.8117 206.4 24.3173 205.818 24.9493C205.262 25.5813 204.832 26.3145 204.529 27.1488C204.226 27.983 204.074 28.8678 204.074 29.8032Z" fill="white"/>
<path d="M184.43 21.1572C184.48 21.6375 184.518 22.1684 184.543 22.7499C184.569 23.3313 184.581 23.8117 184.581 24.1909H184.657C185.163 23.1544 185.984 22.3201 187.122 21.6881C188.26 21.0308 189.461 20.7021 190.725 20.7021C192.975 20.7021 194.656 21.3721 195.768 22.712C196.906 24.0519 197.475 25.8215 197.475 28.0209V38.9043H194.896V29.0827C194.896 28.1473 194.82 27.3004 194.668 26.542C194.517 25.7836 194.251 25.1389 193.872 24.608C193.518 24.0519 193.025 23.6221 192.393 23.3187C191.786 23.0153 191.015 22.8637 190.08 22.8637C189.397 22.8637 188.727 23.0027 188.07 23.2808C187.438 23.5589 186.869 23.9887 186.364 24.5701C185.858 25.1263 185.454 25.8468 185.15 26.7316C184.847 27.5912 184.695 28.615 184.695 29.8032V38.9043H182.117V25.0631C182.117 24.5828 182.104 23.9634 182.079 23.2049C182.053 22.4465 182.015 21.7639 181.965 21.1572H184.43Z" fill="white"/>
<path d="M176.768 38.9044H174.189V21.1573H176.768V38.9044ZM177.299 14.3314C177.299 14.8623 177.109 15.3048 176.73 15.6587C176.351 15.9873 175.933 16.1517 175.478 16.1517C175.023 16.1517 174.606 15.9873 174.227 15.6587C173.848 15.3048 173.658 14.8623 173.658 14.3314C173.658 13.8006 173.848 13.3708 174.227 13.0421C174.606 12.6882 175.023 12.5112 175.478 12.5112C175.933 12.5112 176.351 12.6882 176.73 13.0421C177.109 13.3708 177.299 13.8006 177.299 14.3314Z" fill="white"/>
<path d="M155.849 38.9044H153.119V12.0562H161.007C162.321 12.0562 163.535 12.1826 164.647 12.4354C165.785 12.6882 166.758 13.1053 167.567 13.6868C168.401 14.2429 169.046 14.9761 169.501 15.8862C169.956 16.7963 170.184 17.9087 170.184 19.2233C170.184 20.2092 170.007 21.1067 169.653 21.9157C169.299 22.7246 168.819 23.4325 168.212 24.0393C167.605 24.6207 166.885 25.0884 166.05 25.4423C165.216 25.7963 164.306 26.0238 163.32 26.1249L171.17 38.9044H167.833L160.4 26.3524H155.849V38.9044ZM155.849 24.0013H160.59C162.789 24.0013 164.483 23.6095 165.671 22.8258C166.859 22.0168 167.453 20.8159 167.453 19.2233C167.453 18.3384 167.289 17.5926 166.96 16.9859C166.632 16.3792 166.177 15.8862 165.595 15.507C165.014 15.1278 164.306 14.8497 163.472 14.6727C162.637 14.4957 161.715 14.4073 160.703 14.4073H155.849V24.0013Z" fill="white"/>
<path d="M12.7334 11.5957C18.12 11.5957 22.4873 15.9599 22.4873 21.3428C22.4873 23.6721 21.6679 25.8087 20.3076 27.4824L24.0391 38.8848H1.42676L5.1582 27.4824C3.79796 25.8087 2.97954 23.6721 2.97949 21.3428C2.97949 15.9598 7.34678 11.5957 12.7334 11.5957ZM12.7334 16.1865C9.88351 16.1865 7.57324 18.4954 7.57324 21.3428C7.57328 23.316 8.68282 25.0306 10.3135 25.8975L10.4814 25.9863L7.7627 34.2939H17.7041L14.9854 25.9863L15.1533 25.8975C16.7839 25.0306 17.8935 23.3159 17.8936 21.3428C17.8936 18.4955 15.5833 16.1865 12.7334 16.1865ZM12.7363 0.00390625L12.7373 0.00488281L15.8115 4.0332L19.7754 1.53809L20.8662 5.73926L25.4668 4.77344L21.2822 11.6045C19.001 9.60269 16.0104 8.38869 12.7373 8.3877H12.7295C9.45638 8.38868 6.46586 9.60268 4.18457 11.6045L0 4.77344L4.60059 5.73926L5.69141 1.53809L9.65527 4.0332L12.7334 0L12.7363 0.00390625Z" fill="white"/>
</svg>
